<svg id="a46f65c8-23ec-48a8-a5c0-bb19ef1382cf" data-name="Layer 1" xmlns="http://www.w3.org/2000/svg" viewBox="0 0 600.06 304">
	<defs>
		<style>
			.b965fbc8-0e0c-47a2-9c2d-f781bf09b373 {
				fill: #fff;
			}
			.b02e2615-ed67-41cd-b667-39275b743121 {
				fill: #57d6f2;
			}
			.f1f2fe58-148d-4640-a9d1-27c990f58351 {
				fill: #f25430;
			}
		</style>
	</defs><rect class="b965fbc8-0e0c-47a2-9c2d-f781bf09b373" width="600.06" height="304"/><path class="b02e2615-ed67-41cd-b667-39275b743121" d="M46.94,157.84a.83.83,0,1,1,.83.83.83.83,0,0,1-.83-.83Z" transform="translate(0.06 1)"/><ellipse class="b02e2615-ed67-41cd-b667-39275b743121" cx="25.42" cy="81.43" rx="4.64" ry="4.65"/><path class="b02e2615-ed67-41cd-b667-39275b743121" d="M74.56,74.77a4.89,4.89,0,1,1,4.88,4.89,4.88,4.88,0,0,1-4.88-4.89Z" transform="translate(0.06 1)"/><ellipse class="b02e2615-ed67-41cd-b667-39275b743121" cx="61.3" cy="100.24" rx="3.86" ry="3.87"/><path class="b02e2615-ed67-41cd-b667-39275b743121" d="M88.59,90.48a4.69,4.69,0,1,1,4.68,4.69h0A4.68,4.68,0,0,1,88.59,90.48Z" transform="translate(0.06 1)"/><ellipse class="b02e2615-ed67-41cd-b667-39275b743121" cx="180.07" cy="38.57" rx="4.51" ry="4.52"/><ellipse class="b02e2615-ed67-41cd-b667-39275b743121" cx="110.7" cy="155.48" rx="2.67" ry="2.67"/><ellipse class="b02e2615-ed67-41cd-b667-39275b743121" cx="217.36" cy="191.29" rx="4.77" ry="4.78"/><path class="b02e2615-ed67-41cd-b667-39275b743121" d="M255.56,243.56a4.34,4.34,0,1,1,4.34,4.36A4.34,4.34,0,0,1,255.56,243.56Z" transform="translate(0.06 1)"/><ellipse class="b02e2615-ed67-41cd-b667-39275b743121" cx="397.37" cy="190.29" rx="2.17" ry="2.17"/><path class="b02e2615-ed67-41cd-b667-39275b743121" d="M367.91,122.87a.75.75,0,1,1,.75.76.75.75,0,0,1-.75-.76Z" transform="translate(0.06 1)"/><path class="b02e2615-ed67-41cd-b667-39275b743121" d="M306.91,95.93a1.56,1.56,0,1,1,1.56,1.56,1.56,1.56,0,0,1-1.56-1.56Z" transform="translate(0.06 1)"/><path class="b02e2615-ed67-41cd-b667-39275b743121" d="M209.29,109.7A2.31,2.31,0,1,1,211.6,112a2.32,2.32,0,0,1-2.31-2.32Z" transform="translate(0.06 1)"/><path class="b02e2615-ed67-41cd-b667-39275b743121" d="M211.81,28.82a2.53,2.53,0,1,1,2.53,2.53h0a2.52,2.52,0,0,1-2.52-2.52Z" transform="translate(0.06 1)"/><ellipse class="b02e2615-ed67-41cd-b667-39275b743121" cx="205.06" cy="21.12" rx="4.51" ry="4.53"/><ellipse class="b02e2615-ed67-41cd-b667-39275b743121" cx="74.43" cy="190.72" rx="4.06" ry="4.08"/><path class="b02e2615-ed67-41cd-b667-39275b743121" d="M134.53,182.18a2.13,2.13,0,1,1,2.13,2.12,2.13,2.13,0,0,1-2.13-2.12Z" transform="translate(0.06 1)"/><path class="b02e2615-ed67-41cd-b667-39275b743121" d="M173,260.58a2.26,2.26,0,1,1,2.26,2.27,2.26,2.26,0,0,1-2.26-2.27Z" transform="translate(0.06 1)"/><path class="b02e2615-ed67-41cd-b667-39275b743121" d="M117.37,157.57a2.68,2.68,0,1,1,2.68,2.68,2.68,2.68,0,0,1-2.68-2.68Z" transform="translate(0.06 1)"/><ellipse class="b02e2615-ed67-41cd-b667-39275b743121" cx="167.9" cy="184.57" rx="4.96" ry="4.97"/><path class="b02e2615-ed67-41cd-b667-39275b743121" d="M189.93,258.46a1.84,1.84,0,1,1,1.83,1.84,1.83,1.83,0,0,1-1.83-1.84Z" transform="translate(0.06 1)"/><path class="b02e2615-ed67-41cd-b667-39275b743121" d="M176.28,213.3A1.74,1.74,0,1,1,178,215h0A1.74,1.74,0,0,1,176.28,213.3Z" transform="translate(0.06 1)"/><path class="f1f2fe58-148d-4640-a9d1-27c990f58351" d="M101.63,134.52s4.49,10.61-6,20.16C95.62,154.71,88.9,141.82,101.63,134.52Z" transform="translate(0.06 1)"/><path class="f1f2fe58-148d-4640-a9d1-27c990f58351" d="M40.49,114.86s-4,13.63-21.48,14.49C19,129.35,22.65,111.81,40.49,114.86Z" transform="translate(0.06 1)"/><path class="f1f2fe58-148d-4640-a9d1-27c990f58351" d="M99,112s-14,2.81-23-12.44C76,99.51,93.32,94.56,99,112Z" transform="translate(0.06 1)"/><path class="f1f2fe58-148d-4640-a9d1-27c990f58351" d="M336.35,226.21s8.62,4.25,7.17,16C343.53,242.25,332.27,237.8,336.35,226.21Z" transform="translate(0.06 1)"/><path class="f1f2fe58-148d-4640-a9d1-27c990f58351" d="M369.29,187.1s2.8,7.18-4.39,13.34C364.9,200.44,360.66,191.73,369.29,187.1Z" transform="translate(0.06 1)"/><path class="f1f2fe58-148d-4640-a9d1-27c990f58351" d="M438.27,252.47s-7,10.37-22,6.36C416.31,258.83,424.1,245.08,438.27,252.47Z" transform="translate(0.06 1)"/><path class="f1f2fe58-148d-4640-a9d1-27c990f58351" d="M144.1,209.12s11.74,4,11.85,19.33C156,228.45,140.8,224.63,144.1,209.12Z" transform="translate(0.06 1)"/><path class="f1f2fe58-148d-4640-a9d1-27c990f58351" d="M153.8,276.73s-3.51,12.39-20.34,13.6C133.46,290.33,136.51,274.42,153.8,276.73Z" transform="translate(0.06 1)"/>
</svg>
