<svg xmlns="http://www.w3.org/2000/svg" viewBox="0 0 199.02 200.48">
	<defs>
		<style>
			.e996e999-24d1-40ca-8d06-44ed61fea0f5 {
				fill: #56c9f5;
				stroke-width: 1.01px;
			}
			.a25468c6-b68e-4735-85fd-06f8bc0b715c,
			.ac3e79af-77aa-4def-8f5c-f0c64686d7b8,
			.b076b0e6-801f-4d27-aa96-1ddf02342f7a,
			.e996e999-24d1-40ca-8d06-44ed61fea0f5 {
				stroke: #211c1d;
			}
			.a25468c6-b68e-4735-85fd-06f8bc0b715c,
			.a293a69a-329a-48a5-b90c-33417d6bdf53,
			.ac3e79af-77aa-4def-8f5c-f0c64686d7b8,
			.b055db2b-7412-4a5f-bf95-76856b17c9e9,
			.b06f7a3a-9ea4-446a-a801-65363f934ab7,
			.b076b0e6-801f-4d27-aa96-1ddf02342f7a,
			.e588ed88-6ef3-4031-a5fc-a409b9b153c1,
			.e5905461-488b-4e15-bf06-f11c93e192b6,
			.e996e999-24d1-40ca-8d06-44ed61fea0f5,
			.f6e7a54d-7203-475f-b588-af5262fad6a4 {
				stroke-linecap: round;
				stroke-linejoin: round;
			}
			.a25468c6-b68e-4735-85fd-06f8bc0b715c,
			.f6e7a54d-7203-475f-b588-af5262fad6a4 {
				fill: #fff;
			}
			.a25468c6-b68e-4735-85fd-06f8bc0b715c {
				stroke-width: 1.01px;
			}
			.b076b0e6-801f-4d27-aa96-1ddf02342f7a {
				fill: #f2db9f;
				stroke-width: 1px;
			}
			.b469f2d8-390c-4ff0-a72c-ea251993868b,
			.e5905461-488b-4e15-bf06-f11c93e192b6 {
				fill: #d77574;
			}
			.a293a69a-329a-48a5-b90c-33417d6bdf53,
			.b055db2b-7412-4a5f-bf95-76856b17c9e9,
			.b06f7a3a-9ea4-446a-a801-65363f934ab7,
			.e588ed88-6ef3-4031-a5fc-a409b9b153c1,
			.e5905461-488b-4e15-bf06-f11c93e192b6,
			.f6e7a54d-7203-475f-b588-af5262fad6a4 {
				stroke: #1b2d42;
				stroke-width: 0.77px;
			}
			.ac3e79af-77aa-4def-8f5c-f0c64686d7b8 {
				fill: #e86433;
				stroke-width: 1.02px;
			}
			.b06f7a3a-9ea4-446a-a801-65363f934ab7 {
				fill: #68c3c5;
			}
			.e588ed88-6ef3-4031-a5fc-a409b9b153c1 {
				fill: #915d3a;
			}
			.b055db2b-7412-4a5f-bf95-76856b17c9e9 {
				fill: none;
			}
			.a293a69a-329a-48a5-b90c-33417d6bdf53 {
				fill: #1b2d42;
			}
		</style>
	</defs>
	<g id="a9921270-53de-4b51-a7a5-4eeae045e900" data-name="Layer 2">
		<g id="b9839424-aaeb-4d5b-b36e-196d17045509" data-name="OBJECTS"><rect class="e996e999-24d1-40ca-8d06-44ed61fea0f5" x="0.51" y="92.8" width="198" height="48.12"/><path
			class="a25468c6-b68e-4735-85fd-06f8bc0b715c"
			d="M198.51,4.84a25.37,25.37,0,0,0-3.59-1.55C158.05-9.39,160.68,25,166.06,31.14s.56,13.79-11.32,15-8,14.54-8,14.54c-7.32,1.45-5.11,9.23-5.11,9.23-13-4.92-16.15,5.76-16.15,5.76C103.79,60.25,90.54,80,81.13,81.57s-11.44-8.36-21.94-9.71-15.6,9.43-15.6,9.43S38.9,69,29.51,67.08a19.4,19.4,0,0,0-15.74,3.48C15,54.54.51,52.24.51,52.24V92.8h198Z"/><ellipse class="b076b0e6-801f-4d27-aa96-1ddf02342f7a" cx="33.29" cy="32.1" rx="11.59" ry="11.98"/><path class="e5905461-488b-4e15-bf06-f11c93e192b6" d="M91.06,70c-11.42,1.86-25.07,15.37-33,72.2l6,1s10.3-36.63,17.48-49Z"/><path class="ac3e79af-77aa-4def-8f5c-f0c64686d7b8" d="M.51,140.55s103.14-17.53,198-3.92V200H.51Z"/><path class="b06f7a3a-9ea4-446a-a801-65363f934ab7" d="M92.52,64.23s-5.29,3.25-7.38-2c0,0-10-3.75-5-13,0,0-1.88-10.37,10.45-8.7,0,0,5.42-7.33,12.36-.19,2.68,2.77,2.32,6.5.87,10,0,0,4.11,6.55-4.8,10.92Z"/><path class="e588ed88-6ef3-4031-a5fc-a409b9b153c1" d="M95.77,71.86V65s7.75,1.32,7.2-5.78-4.11-9.61-4.11-9.61-3.76,5.57-7.8,4.46c0,0-1.53-2.23-3.48-.7s-.7,6.33,2.5,7.37l.23,11.13Z"/><path class="e5905461-488b-4e15-bf06-f11c93e192b6" d="M97.51,60.73a2.32,2.32,0,1,0-2.32,2.32A2.32,2.32,0,0,0,97.51,60.73Z"/><path class="b469f2d8-390c-4ff0-a72c-ea251993868b" d="M76.29,113.88S74.9,70,93.7,69.59s17.17,44,17.17,44S97.19,118.9,76.29,113.88Z"/><path class="b055db2b-7412-4a5f-bf95-76856b17c9e9" d="M93.7,69.59c18.81-.42,17.17,44,17.17,44s-13.68,5.36-34.58.34c0,0-.45-14.39,2.69-26.76"/><path class="b055db2b-7412-4a5f-bf95-76856b17c9e9" d="M88.48,70.58a17.22,17.22,0,0,1,5.22-1"/><path class="a293a69a-329a-48a5-b90c-33417d6bdf53" d="M76.29,113.88S72.67,137.14,88,134.77s25.07-6.26,25.35-5.85,22,35.94,22,35.94l6.13-3.34s-10.86-38.45-23.26-45.41S76.29,113.88,76.29,113.88Z"/><polygon class="f6e7a54d-7203-475f-b588-af5262fad6a4" points="138 170.71 135.35 164.86 141.48 161.52 143.22 164.16 150.88 164.37 138 170.71"/><path class="a293a69a-329a-48a5-b90c-33417d6bdf53" d="M103.18,113.6c11.56-1,24.65-6,30.64,2.79S115.15,148,91.06,157.48l-4-4.18,21.68-24.93Z"/><polygon class="f6e7a54d-7203-475f-b588-af5262fad6a4" points="81.52 156.99 87.02 153.3 91.06 157.48 88.83 159.71 90.22 166.39 81.52 156.99"/><path class="e588ed88-6ef3-4031-a5fc-a409b9b153c1" d="M94.19,109.08c-3.18-.37-6.11,1.16-6.84,5.23a23.2,23.2,0,0,0,7.34-.12l.76-2.19Z"/><path class="b469f2d8-390c-4ff0-a72c-ea251993868b" d="M94.69,69.61c8.49.67,25.51,16.24,24.78,31.53s-24.78,13-24.78,13l-.5-5.11,14.51-8.3Z"/><path class="b055db2b-7412-4a5f-bf95-76856b17c9e9" d="M94.69,69.61c8.49.67,25.51,16.24,24.78,31.53s-24.78,13-24.78,13l-.5-5.11,14.51-8.3"/></g>
	</g>
</svg>
