<svg xmlns="http://www.w3.org/2000/svg" viewBox="0 0 199.01 186.49">
	<defs>
		<style>
			.b81b1717-85cc-41a1-b581-a7e692f9aa11 {
				fill: #fff;
				stroke-width: 1.01px;
			}
			.b81b1717-85cc-41a1-b581-a7e692f9aa11,
			.b92204a5-5ea7-4101-aba7-44b63542e70d {
				stroke: #211c1d;
			}
			.a2ebc7be-2eae-47d2-8cad-784a3ae820f8,
			.aa9b0a33-2763-4142-a11c-a9ac26a1900d,
			.ae245ea1-e1fc-4c2b-a0d0-880ac635a6d7,
			.b81b1717-85cc-41a1-b581-a7e692f9aa11,
			.ba2a27b2-c5e9-43c7-9f4a-dd700fe6d066,
			.bc49122a-af8b-4abc-8c32-a2399ab250e9,
			.bef0efd6-95e1-4596-863d-260b8df51cfb,
			.e1fc0642-fac4-4edc-9945-1f67a058c5ee,
			.ef5fd8bb-d896-49e1-91fb-fd81d68cf0a3 {
				stroke-linecap: round;
				stroke-linejoin: round;
			}
			.b92204a5-5ea7-4101-aba7-44b63542e70d {
				fill: #e86433;
				stroke-miterlimit: 10;
				stroke-width: 1.01px;
			}
			.a2ebc7be-2eae-47d2-8cad-784a3ae820f8 {
				fill: #1b2d42;
			}
			.a2ebc7be-2eae-47d2-8cad-784a3ae820f8,
			.aa9b0a33-2763-4142-a11c-a9ac26a1900d,
			.ae245ea1-e1fc-4c2b-a0d0-880ac635a6d7,
			.ba2a27b2-c5e9-43c7-9f4a-dd700fe6d066,
			.bc49122a-af8b-4abc-8c32-a2399ab250e9,
			.bef0efd6-95e1-4596-863d-260b8df51cfb,
			.e1fc0642-fac4-4edc-9945-1f67a058c5ee,
			.ef5fd8bb-d896-49e1-91fb-fd81d68cf0a3 {
				stroke: #1b2d42;
				stroke-width: 0.77px;
			}
			.bef0efd6-95e1-4596-863d-260b8df51cfb {
				fill: #ffc298;
			}
			.a891968f-7ca2-4041-ae0c-e46cf5717ed8,
			.ba2a27b2-c5e9-43c7-9f4a-dd700fe6d066 {
				fill: #ffa9c0;
			}
			.ef5fd8bb-d896-49e1-91fb-fd81d68cf0a3 {
				fill: #ffb199;
			}
			.bc49122a-af8b-4abc-8c32-a2399ab250e9 {
				fill: none;
			}
			.e1fc0642-fac4-4edc-9945-1f67a058c5ee {
				fill: #f2db9f;
			}
			.aa9b0a33-2763-4142-a11c-a9ac26a1900d {
				fill: #d77574;
			}
			.ae245ea1-e1fc-4c2b-a0d0-880ac635a6d7 {
				fill: #68c3c5;
			}
		</style>
	</defs>
	<g id="bf1988a0-6743-4f9a-ba8b-49c24bc182fb" data-name="Layer 2">
		<g id="a73bd78c-b472-4299-b577-02223529b8a7" data-name="OBJECTS"><path
			class="b81b1717-85cc-41a1-b581-a7e692f9aa11"
			d="M.5,58.54s11.78-2.28,12.12,9c0,0,7.9-8.91,18.12,0S49.15,52.22,68.27,53.3s23.2,19.86,32.62,18.6,5.55-8.23,23.65-4.38S131.42,52,139.44,42.1c4.27-5.28,12.6-4.48,17.06-1.72,0,0-3.74-41.44,42-32.77V134H.5Z"/><path
			class="b92204a5-5ea7-4101-aba7-44b63542e70d"
			d="M.5,186h198V130.72s-13.65-5.6-37-9l-1.19-5s-34-5.24-34.14-59.42L119,55.37s-5.29,24.48-14.51,32.49-16.9,1.69-19.11-14.75L78.17,69,73.9,4.12,64.17.51a147.41,147.41,0,0,0-23.55,4.7S38.91,22.1,38.91,31.35c0,13.12-7.85,17.77-8.19,46.82C30.51,95.53.5,109.1.5,109.1Z"/><path class="a2ebc7be-2eae-47d2-8cad-784a3ae820f8" d="M90.9,54.34s-9.61-3-6.57-14.45S96.52,29,96.52,29s2.89-10,11-10.08S121,29,113.55,34.74l-9.77,5.86-7.5,13.74Z"/><path
			class="bef0efd6-95e1-4596-863d-260b8df51cfb"
			d="M136.67,101.07c-.09-.86-4.56-2-4.56-2s2.41-.23,2-1.31c-.27-.76-3.51.38-3.51.38s-3.49-1.08-10.83-14.33S112.45,53.48,106,46.14c0,0-13.79-.84-3.8,23.36S128,102.12,128,102.12s4.18,3.89,4.63,3.43-1.26-2.34-1.26-2.34,3.27,2.16,3.67,1.39-2.89-2.48-2.89-2.48,3.94,1.83,4.17.93-3.48-2.46-3.48-2.46S136.76,101.93,136.67,101.07Z"/><path class="bef0efd6-95e1-4596-863d-260b8df51cfb" d="M106,46.14S92.5,45.33,102,68.83l4.94-1.12s2-.68,5.73-4.68C110.89,56.08,109.28,49.86,106,46.14Z"/><polygon class="bef0efd6-95e1-4596-863d-260b8df51cfb" points="88.56 84.36 87.77 93.67 107.64 92.49 108.09 82.41 88.56 84.36"/><path class="bef0efd6-95e1-4596-863d-260b8df51cfb" d="M98.63,46.56l3-9.69s-3-2.15-1.55-5.27c1.2-2.55,3.81-.81,4.11,1.15.58,3.74,3.16.06,3.16.06a5.47,5.47,0,0,0,6.88-.52s.88,12-8.59,9.42l-1.88,6.38Z"/><polygon class="bef0efd6-95e1-4596-863d-260b8df51cfb" points="114.05 151.73 118.02 166.81 122.54 165.27 118.37 149.5 114.05 151.73"/><polygon class="a2ebc7be-2eae-47d2-8cad-784a3ae820f8" points="118.02 166.81 118.83 171.35 129.49 168.18 123.65 167.5 122.54 165.27 118.02 166.81"/><path class="ba2a27b2-c5e9-43c7-9f4a-dd700fe6d066" d="M97.62,44.15c5.14-2.23,10.83.48,11.64,12.85s0,30.55,0,30.55-16.07,2.17-29.07,0Z"/><path class="bef0efd6-95e1-4596-863d-260b8df51cfb" d="M72.62,144S66,155.86,63.35,161l3.49,2.53a191.65,191.65,0,0,0,10.35-17.1Z"/><polygon class="a2ebc7be-2eae-47d2-8cad-784a3ae820f8" points="63.35 161.04 60.91 164.85 68.04 170.58 65.88 165.81 66.84 163.57 63.35 161.04"/><path class="bef0efd6-95e1-4596-863d-260b8df51cfb" d="M97.4,64.9c-2.47,4.39-5.17,8.61-7.34,11.68C82.93,86.67,73.54,99.82,73.54,99.82s.58,7.54-2.47,7.57c-4.7,0-3.77-4.72-3.07-6.49,1-2.59,8.65-28.44,18.27-44.53"/><path class="ef5fd8bb-d896-49e1-91fb-fd81d68cf0a3" d="M109.68,38.86A2.16,2.16,0,1,0,107.53,41,2.16,2.16,0,0,0,109.68,38.86Z"/><path class="a891968f-7ca2-4041-ae0c-e46cf5717ed8" d="M101.86,43.73c-5.3-1.2-10.7,4.46-15.59,12.64A24.49,24.49,0,0,0,97.4,64.9C102.77,55.31,107,44.89,101.86,43.73Z"/><path class="bc49122a-af8b-4abc-8c32-a2399ab250e9" d="M103.31,44c-6.85-2.15-12.15,4.23-17,12.41A24.49,24.49,0,0,0,97.4,64.9c1.51-2.71,2.94-5.48,4.08-8.09"/><path class="bc49122a-af8b-4abc-8c32-a2399ab250e9" d="M70.81,103.9a2.21,2.21,0,0,1,.9,3L58.06,132"/><path class="bc49122a-af8b-4abc-8c32-a2399ab250e9" d="M51.65,127.11,65,103.24a2.21,2.21,0,0,1,2.57-1"/><path class="e1fc0642-fac4-4edc-9945-1f67a058c5ee" d="M25.23,161.49l14.87,8.3L59,135.09a6.38,6.38,0,0,0-2.71-8.74l-1.82-.93A16,16,0,0,0,33.08,132L22.39,151.71A7.23,7.23,0,0,0,25.23,161.49Z"/><path class="e1fc0642-fac4-4edc-9945-1f67a058c5ee" d="M40.1,169.79,59,135.09a6.39,6.39,0,0,0-1.54-8L35.14,167Z"/><path class="aa9b0a33-2763-4142-a11c-a9ac26a1900d" d="M42.26,132a2.08,2.08,0,1,1-2.07-2.08A2.08,2.08,0,0,1,42.26,132Z"/><path class="a2ebc7be-2eae-47d2-8cad-784a3ae820f8" d="M43,169.38a2.79,2.79,0,1,0-2.78,2.78A2.79,2.79,0,0,0,43,169.38Z"/><path class="aa9b0a33-2763-4142-a11c-a9ac26a1900d" d="M41.39,169.38a1.21,1.21,0,1,0-1.2,1.2A1.2,1.2,0,0,0,41.39,169.38Z"/><path class="ae245ea1-e1fc-4c2b-a0d0-880ac635a6d7" d="M107.68,91.6c-8.67-.51-20.49-.46-20.49-.46-4,17.69-18.56,55.77-18.56,55.77,9.27,8.31,21,6.14,21,6.14,1.83-3.21,3.93-9,6-15.67C97.43,146,99,152.09,99,152.09c16.73,5,24.68-2.89,24.68-2.89Z"/><path class="bc49122a-af8b-4abc-8c32-a2399ab250e9" d="M95.63,137.38s6.65-20.65,8.54-34.79"/></g>
	</g>
</svg>
