<svg xmlns="http://www.w3.org/2000/svg" viewBox="0 0 198.99 189.57"><defs><style>.f09e0fae-1ca0-45a1-be82-887d717abb82{fill:#56c9f5;stroke-width:0.98px;}.e2919314-7070-411c-a949-2edef867f682,.f09e0fae-1ca0-45a1-be82-887d717abb82,.f15a7010-aa4b-468b-a0c2-f1c9786dd5a9,.fc3fc235-473a-41b5-b0c0-7d7bfd8b7b1c{stroke:#211c1d;}.ac62e2eb-1d9e-4709-a43a-7c6966ae0769,.b2c34976-9d0c-4cfa-b2e4-29db19cae953,.b601a5d1-45a0-41ea-adb0-b01aca5aed20,.e15d94f0-9ac8-4398-acd3-d2a827fb1756,.e2919314-7070-411c-a949-2edef867f682,.f09e0fae-1ca0-45a1-be82-887d717abb82,.f15a7010-aa4b-468b-a0c2-f1c9786dd5a9,.f185b278-baad-480a-9c1e-1ca01eeca5c0,.f9a7fc8d-7f53-4562-965b-71c7021d0373,.fc3fc235-473a-41b5-b0c0-7d7bfd8b7b1c{stroke-linecap:round;stroke-linejoin:round;}.b2c34976-9d0c-4cfa-b2e4-29db19cae953,.fc3fc235-473a-41b5-b0c0-7d7bfd8b7b1c{fill:#fff;}.fc3fc235-473a-41b5-b0c0-7d7bfd8b7b1c{stroke-width:0.98px;}.f15a7010-aa4b-468b-a0c2-f1c9786dd5a9{fill:#f2db9f;stroke-width:0.97px;}.ac62e2eb-1d9e-4709-a43a-7c6966ae0769,.e08d2852-043a-4a2d-ae83-61cbbb535ee6{fill:#d77574;}.ac62e2eb-1d9e-4709-a43a-7c6966ae0769,.b2c34976-9d0c-4cfa-b2e4-29db19cae953,.b601a5d1-45a0-41ea-adb0-b01aca5aed20,.e15d94f0-9ac8-4398-acd3-d2a827fb1756,.f185b278-baad-480a-9c1e-1ca01eeca5c0,.f9a7fc8d-7f53-4562-965b-71c7021d0373{stroke:#1b2d42;stroke-width:0.75px;}.e2919314-7070-411c-a949-2edef867f682{fill:#e86433;stroke-width:0.99px;}.e15d94f0-9ac8-4398-acd3-d2a827fb1756{fill:#68c3c5;}.f185b278-baad-480a-9c1e-1ca01eeca5c0{fill:#915d3a;}.f9a7fc8d-7f53-4562-965b-71c7021d0373{fill:none;}.b601a5d1-45a0-41ea-adb0-b01aca5aed20{fill:#1b2d42;}</style></defs><g id="e4eb09e6-42ed-4df4-819a-47375fa7bb57" data-name="Layer 2"><g id="a3b49b6f-a34f-4839-bebd-24dea881ce18" data-name="OBJECTS"><rect class="f09e0fae-1ca0-45a1-be82-887d717abb82" x="0.5" y="87.76" width="198" height="45.49"/><path class="fc3fc235-473a-41b5-b0c0-7d7bfd8b7b1c" d="M198.5,4.59a26.4,26.4,0,0,0-3.59-1.47c-36.87-12-34.25,20.54-28.86,26.34s.55,13-11.32,14.22-8,13.75-8,13.75c-7.32,1.37-5.11,8.73-5.11,8.73-13-4.65-16.16,5.44-16.16,5.44C103.78,57,90.52,75.68,81.11,77.13S69.67,69.23,59.18,68s-15.6,8.91-15.6,8.91-4.7-11.59-14.09-13.43a20.17,20.17,0,0,0-15.74,3.29C15,51.58.5,49.41.5,49.41V87.76h198Z"/><ellipse class="f15a7010-aa4b-468b-a0c2-f1c9786dd5a9" cx="33.28" cy="30.36" rx="11.59" ry="11.33"/><path class="ac62e2eb-1d9e-4709-a43a-7c6966ae0769" d="M91,66.16C79.62,67.91,66,80.69,58,134.42l6,.92S74.33,100.71,81.5,89Z"/><path class="e2919314-7070-411c-a949-2edef867f682" d="M.5,132.9s103.14-16.58,198-3.71v59.89H.5Z"/><path class="e15d94f0-9ac8-4398-acd3-d2a827fb1756" d="M92.51,60.74s-5.3,3.07-7.39-1.86c0,0-10-3.54-4.94-12.23,0,0-1.88-9.81,10.45-8.23,0,0,5.42-6.93,12.35-.18,2.69,2.62,2.33,6.14.88,9.47,0,0,4.11,6.2-4.81,10.33Z"/><path class="f185b278-baad-480a-9c1e-1ca01eeca5c0" d="M95.76,68v-6.5S103.51,62.71,103,56s-4.11-9.09-4.11-9.09-3.76,5.27-7.8,4.21c0,0-1.53-2.1-3.48-.66s-.7,6,2.51,7L90.29,68Z"/><path class="ac62e2eb-1d9e-4709-a43a-7c6966ae0769" d="M97.5,57.43a2.32,2.32,0,1,0-2.32,2.19A2.26,2.26,0,0,0,97.5,57.43Z"/><path class="e08d2852-043a-4a2d-ae83-61cbbb535ee6" d="M76.28,107.69S74.89,66.2,93.69,65.81s17.17,41.55,17.17,41.55S97.17,112.43,76.28,107.69Z"/><path class="f9a7fc8d-7f53-4562-965b-71c7021d0373" d="M93.69,65.81c18.8-.4,17.17,41.55,17.17,41.55s-13.69,5.07-34.58.33c0,0-.46-13.61,2.68-25.31"/><path class="f9a7fc8d-7f53-4562-965b-71c7021d0373" d="M88.47,66.74a18.22,18.22,0,0,1,5.22-.93"/><path class="b601a5d1-45a0-41ea-adb0-b01aca5aed20" d="M76.28,107.69s-3.62,22,11.7,19.75,25.07-5.93,25.35-5.53,22,34,22,34l6.13-3.17s-10.87-36.34-23.27-42.93S76.28,107.69,76.28,107.69Z"/><polygon class="b2c34976-9d0c-4cfa-b2e4-29db19cae953" points="137.98 161.42 135.34 155.88 141.47 152.72 143.21 155.23 150.87 155.42 137.98 161.42"/><path class="b601a5d1-45a0-41ea-adb0-b01aca5aed20" d="M103.16,107.42c11.56-.92,24.66-5.66,30.64,2.64S115.14,140,91,148.91l-4-4,21.69-23.57Z"/><polygon class="b2c34976-9d0c-4cfa-b2e4-29db19cae953" points="81.5 148.44 87 144.96 91.04 148.91 88.81 151.01 90.21 157.33 81.5 148.44"/><path class="f185b278-baad-480a-9c1e-1ca01eeca5c0" d="M94.18,103.14c-3.19-.34-6.11,1.11-6.85,5a24.82,24.82,0,0,0,7.34-.11l.76-2.07Z"/><path class="e08d2852-043a-4a2d-ae83-61cbbb535ee6" d="M94.67,65.83c8.49.63,25.52,15.35,24.79,29.81S94.67,108,94.67,108l-.49-4.84,14.51-7.84Z"/><path class="f9a7fc8d-7f53-4562-965b-71c7021d0373" d="M94.67,65.83c8.49.63,25.52,15.35,24.79,29.81S94.67,108,94.67,108l-.49-4.84,14.51-7.84"/></g></g></svg>