<svg xmlns="http://www.w3.org/2000/svg" viewBox="0 0 199.02 189.87"><defs><style>.f923c1e4-b052-4bc7-ac7a-ded8f425b15a{fill:#fff;stroke-width:1.02px;}.f923c1e4-b052-4bc7-ac7a-ded8f425b15a,.fa1ec669-ee4f-4e93-9a45-de2a0a107dcb{stroke:#211c1d;}.a4a13221-578a-47bd-a2da-6b307e30f023,.a6dd0254-9640-459b-86a9-a61b32829a32,.a802237b-3d2f-43ec-9c25-81813814c6e2,.aa5f1722-c97f-4166-bbb0-afe5222f10ba,.b96c4cc9-d02a-4198-ab49-849ce12bf550,.bca96e45-7374-42d2-a9b0-4dc171a83960,.f5482113-a39d-471d-81a5-ea500b8b097b,.f923c1e4-b052-4bc7-ac7a-ded8f425b15a,.f9a43494-9d4f-46ca-8ae3-b5f4ee1a2e58{stroke-linecap:round;stroke-linejoin:round;}.fa1ec669-ee4f-4e93-9a45-de2a0a107dcb{fill:#e86433;stroke-miterlimit:10;stroke-width:1.02px;}.f9a43494-9d4f-46ca-8ae3-b5f4ee1a2e58{fill:#1b2d42;}.a4a13221-578a-47bd-a2da-6b307e30f023,.a6dd0254-9640-459b-86a9-a61b32829a32,.a802237b-3d2f-43ec-9c25-81813814c6e2,.aa5f1722-c97f-4166-bbb0-afe5222f10ba,.b96c4cc9-d02a-4198-ab49-849ce12bf550,.bca96e45-7374-42d2-a9b0-4dc171a83960,.f5482113-a39d-471d-81a5-ea500b8b097b,.f9a43494-9d4f-46ca-8ae3-b5f4ee1a2e58{stroke:#1b2d42;stroke-width:0.78px;}.a802237b-3d2f-43ec-9c25-81813814c6e2{fill:#ffc298;}.a79b261b-c957-4d5b-9527-b69b03c8e87d,.f5482113-a39d-471d-81a5-ea500b8b097b{fill:#ffa9c0;}.a6dd0254-9640-459b-86a9-a61b32829a32{fill:#ffb199;}.bca96e45-7374-42d2-a9b0-4dc171a83960{fill:none;}.aa5f1722-c97f-4166-bbb0-afe5222f10ba{fill:#f2db9f;}.a4a13221-578a-47bd-a2da-6b307e30f023{fill:#d77574;}.b96c4cc9-d02a-4198-ab49-849ce12bf550{fill:#68c3c5;}</style></defs><g id="e9c9d245-5a34-41ef-adcb-520e68f8cf51" data-name="Layer 2"><g id="a076ce9b-8509-4b30-9127-7fb7f83bfb4b" data-name="OBJECTS"><path class="f923c1e4-b052-4bc7-ac7a-ded8f425b15a" d="M.51,59.6s11.78-2.32,12.12,9.14c0,0,7.89-9.07,18.11,0S49.15,53.16,68.27,54.27s23.21,20.22,32.62,18.94,5.56-8.39,23.65-4.47S131.43,53,139.45,42.87c4.27-5.39,12.59-4.57,17.06-1.76,0,0-3.75-42.19,42-33.36V136.46H.51Z"/><path class="fa1ec669-ee4f-4e93-9a45-de2a0a107dcb" d="M.51,189.36h198V133.09s-13.66-5.7-37-9.19l-1.2-5.15s-34-5.33-34.13-60.49L119,56.37s-5.3,24.93-14.51,33.08-16.9,1.72-19.12-15l-7.17-4.23L73.9,4.2,64.17.52A144,144,0,0,0,40.62,5.3s-1.71,17.2-1.71,26.62c0,13.36-7.85,18.09-8.19,47.66C30.52,97.26.51,111.08.51,111.08Z"/><path class="f9a43494-9d4f-46ca-8ae3-b5f4ee1a2e58" d="M90.9,55.32s-9.61-3.1-6.56-14.71,12.18-11,12.18-11,2.89-10.18,11-10.26,13.43,10.26,6,16.06l-9.76,6-7.5,14Z"/><path class="a802237b-3d2f-43ec-9c25-81813814c6e2" d="M136.67,102.9c-.09-.87-4.56-2-4.56-2s2.42-.24,2-1.33c-.27-.79-3.5.38-3.5.38s-3.49-1.1-10.84-14.59S112.46,54.45,106,47c0,0-13.8-.86-3.81,23.78S128,104,128,104s4.18,4,4.63,3.5-1.26-2.39-1.26-2.39,3.27,2.2,3.68,1.42-2.9-2.53-2.9-2.53,4,1.87,4.17,1-3.47-2.51-3.47-2.51S136.76,103.78,136.67,102.9Z"/><path class="a802237b-3d2f-43ec-9c25-81813814c6e2" d="M106,47S92.51,46.15,102,70.08l5-1.14s2-.7,5.73-4.77C110.89,57.09,109.28,50.76,106,47Z"/><polygon class="a802237b-3d2f-43ec-9c25-81813814c6e2" points="88.56 85.89 87.78 95.36 107.64 94.17 108.09 83.9 88.56 85.89"/><path class="a802237b-3d2f-43ec-9c25-81813814c6e2" d="M98.63,47.4l3-9.86s-3-2.19-1.55-5.37c1.2-2.6,3.82-.83,4.12,1.17.57,3.81,3.16.06,3.16.06s3.17,2.55,6.87-.53c0,0,.89,12.2-8.59,9.6L103.73,49Z"/><polygon class="a802237b-3d2f-43ec-9c25-81813814c6e2" points="114.05 154.48 118.03 169.83 122.54 168.27 118.38 152.22 114.05 154.48"/><polygon class="f9a43494-9d4f-46ca-8ae3-b5f4ee1a2e58" points="118.03 169.83 118.84 174.46 129.5 171.23 123.66 170.54 122.54 168.27 118.03 169.83"/><path class="f5482113-a39d-471d-81a5-ea500b8b097b" d="M97.62,45c5.15-2.27,10.84.49,11.65,13.09s0,31.1,0,31.1-16.07,2.21-29.08,0Z"/><path class="a802237b-3d2f-43ec-9c25-81813814c6e2" d="M72.62,146.56S66,158.69,63.35,164l3.49,2.58A198.09,198.09,0,0,0,77.2,149.13Z"/><polygon class="f9a43494-9d4f-46ca-8ae3-b5f4ee1a2e58" points="63.35 163.96 60.91 167.84 68.05 173.68 65.88 168.82 66.84 166.54 63.35 163.96"/><path class="a802237b-3d2f-43ec-9c25-81813814c6e2" d="M97.4,66.07A138.89,138.89,0,0,1,90.06,78c-7.12,10.27-16.52,23.66-16.52,23.66s.59,7.68-2.47,7.71c-4.69,0-3.77-4.81-3.07-6.61,1-2.64,8.66-29,18.27-45.34"/><path class="a6dd0254-9640-459b-86a9-a61b32829a32" d="M109.69,39.56a2.16,2.16,0,1,0-2.16,2.19A2.18,2.18,0,0,0,109.69,39.56Z"/><path class="a79b261b-c957-4d5b-9527-b69b03c8e87d" d="M101.86,44.52c-5.3-1.22-10.7,4.54-15.58,12.87A24.55,24.55,0,0,0,97.4,66.07C102.77,56.31,107,45.7,101.86,44.52Z"/><path class="bca96e45-7374-42d2-a9b0-4dc171a83960" d="M103.32,44.76c-6.86-2.19-12.16,4.3-17,12.63A24.55,24.55,0,0,0,97.4,66.07c1.52-2.75,2.94-5.58,4.09-8.24"/><path class="bca96e45-7374-42d2-a9b0-4dc171a83960" d="M70.81,105.78a2.28,2.28,0,0,1,.91,3.08L58.07,134.34"/><path class="bca96e45-7374-42d2-a9b0-4dc171a83960" d="M51.66,129.42,65,105.11a2.19,2.19,0,0,1,2.57-1.06"/><path class="aa5f1722-c97f-4166-bbb0-afe5222f10ba" d="M25.23,164.42l14.87,8.45L59,137.55a6.57,6.57,0,0,0-2.7-8.91l-1.82-.95a15.9,15.9,0,0,0-21.38,6.75l-10.7,20A7.45,7.45,0,0,0,25.23,164.42Z"/><path class="aa5f1722-c97f-4166-bbb0-afe5222f10ba" d="M40.1,172.87,59,137.55a6.58,6.58,0,0,0-1.54-8.13L35.14,170.05Z"/><path class="a4a13221-578a-47bd-a2da-6b307e30f023" d="M42.27,134.34a2.08,2.08,0,1,1-2.08-2.11A2.1,2.1,0,0,1,42.27,134.34Z"/><path class="f9a43494-9d4f-46ca-8ae3-b5f4ee1a2e58" d="M43,172.45a2.78,2.78,0,1,0-2.78,2.84A2.8,2.8,0,0,0,43,172.45Z"/><path class="a4a13221-578a-47bd-a2da-6b307e30f023" d="M41.39,172.45a1.2,1.2,0,1,0-1.2,1.23A1.21,1.21,0,0,0,41.39,172.45Z"/><path class="b96c4cc9-d02a-4198-ab49-849ce12bf550" d="M107.68,93.26c-8.67-.52-20.49-.47-20.49-.47-4,18-18.56,56.79-18.56,56.79,9.27,8.45,21,6.25,21,6.25,1.83-3.27,3.94-9.11,6.06-16,1.79,8.75,3.33,15,3.33,15,16.74,5.15,24.69-2.94,24.69-2.94Z"/><path class="bca96e45-7374-42d2-a9b0-4dc171a83960" d="M95.64,139.87s6.64-21,8.54-35.42"/></g></g></svg>