<svg xmlns="http://www.w3.org/2000/svg" viewBox="0 0 198.55 214.02">
	<defs>
		<style>
			.aae8a4ca-53fd-47a9-abab-f38eb3a9640d {
				fill: #fff;
			}
			.aae8a4ca-53fd-47a9-abab-f38eb3a9640d,
			.b58c7075-9918-47dd-908d-0365388db0e7,
			.bbd1cdcb-fbcb-422e-96c3-a1a18bba764d {
				stroke: #211c1d;
			}
			.a08fcc1c-37c0-4a22-abff-c2fd981a25ea,
			.a2b5ceaa-a117-4dd6-b836-60e268fecf51,
			.a62cfe61-021a-4d07-aaf9-7e5f2ceaf76d,
			.aae8a4ca-53fd-47a9-abab-f38eb3a9640d,
			.b58c7075-9918-47dd-908d-0365388db0e7,
			.b97b77c2-c5ef-4605-b7a1-aeb6026b881f,
			.bbd1cdcb-fbcb-422e-96c3-a1a18bba764d,
			.bda297ed-b0a0-4f24-9b3b-42dcf1e0ea47,
			.e845bfd5-d163-4f77-99b7-78688b666240,
			.f1632db5-c767-4a08-bb03-b30a752672ed,
			.f2d9d64c-5b28-47a7-9324-8c40e9a6c799,
			.f78c8c7b-f630-47b4-a8fe-2ab1a4c247e5 {
				stroke-linecap: round;
				stroke-linejoin: round;
			}
			.bbd1cdcb-fbcb-422e-96c3-a1a18bba764d {
				fill: #038c3e;
			}
			.a62cfe61-021a-4d07-aaf9-7e5f2ceaf76d {
				fill: #68c3c5;
			}
			.a08fcc1c-37c0-4a22-abff-c2fd981a25ea,
			.a2b5ceaa-a117-4dd6-b836-60e268fecf51,
			.a62cfe61-021a-4d07-aaf9-7e5f2ceaf76d,
			.b97b77c2-c5ef-4605-b7a1-aeb6026b881f,
			.bda297ed-b0a0-4f24-9b3b-42dcf1e0ea47,
			.e845bfd5-d163-4f77-99b7-78688b666240,
			.f1632db5-c767-4a08-bb03-b30a752672ed,
			.f2d9d64c-5b28-47a7-9324-8c40e9a6c799,
			.f78c8c7b-f630-47b4-a8fe-2ab1a4c247e5 {
				stroke: #1b2d42;
				stroke-width: 0.77px;
			}
			.f1632db5-c767-4a08-bb03-b30a752672ed {
				fill: none;
			}
			.b97b77c2-c5ef-4605-b7a1-aeb6026b881f {
				fill: #1b2d42;
			}
			.bda297ed-b0a0-4f24-9b3b-42dcf1e0ea47 {
				fill: #ffc298;
			}
			.e845bfd5-d163-4f77-99b7-78688b666240 {
				fill: #d77574;
			}
			.a2b5ceaa-a117-4dd6-b836-60e268fecf51 {
				fill: #ffb199;
			}
			.a08fcc1c-37c0-4a22-abff-c2fd981a25ea {
				fill: #b0d893;
			}
			.f2d9d64c-5b28-47a7-9324-8c40e9a6c799,
			.fd69f042-fba9-4854-bf75-0d5bca56977d {
				fill: #f2db9f;
			}
			.f78c8c7b-f630-47b4-a8fe-2ab1a4c247e5 {
				fill: #ffa9c0;
			}
			.b58c7075-9918-47dd-908d-0365388db0e7 {
				fill: #296573;
			}
		</style>
	</defs>
	<g id="f2e484b9-e7f3-48ae-9d6b-396d686c7cd6" data-name="Layer 2">
		<g id="a1704549-5962-4591-85bc-b36bf5fd5657" data-name="OBJECTS"><path
			class="aae8a4ca-53fd-47a9-abab-f38eb3a9640d"
			d="M.5,66.12s5-4.8,9.21-1.53S10.63,75,10.63,75s6.57-6.43,12.6.83c0,0,6.16-9.31,15.33,1a9.48,9.48,0,0,1,7.12-6.16c5.61-1.09,10.26,4.93,10.26,4.93s-5.75-14,5.75-18.75S62.79,44,66.08,38.29,76.62,35,76.62,35s-7.12-30.67,25-26c0,0,7.39-12.6,24.64-7.12S140.55,26,146.16,28.16s16.29-18.89,31.49-7.39c0,0,7.53-11.91,20.4-3.69V126.15H.5Z"/><path class="bbd1cdcb-fbcb-422e-96c3-a1a18bba764d" d="M.5,84.42c32-11,71.11,9.37,109.42,13.75S198.05,85,198.05,85V203.25L.5,209Z"/><path class="a62cfe61-021a-4d07-aaf9-7e5f2ceaf76d" d="M92.7,206.74S90.24,125.83,90.44,100l21.15-4.11,20.74,4.72s4.11,93,4.11,104.32l-7.39.21S116.87,142,111.39,119.47c0,0-7.39,64.89-9.65,87.27Z"/><path class="f1632db5-c767-4a08-bb03-b30a752672ed" d="M92.5,109.4s-1.44,6.06,4.41,8.53"/><path class="b97b77c2-c5ef-4605-b7a1-aeb6026b881f" d="M112,42.51c3.27-1.63,5.7-4.47,8-11.14S118.13,19,110.5,16.84,98,17.49,99.87,21.4a17.41,17.41,0,0,1,1.66,7.91s4.4,12,6.33,13.82,3,1.23,3,1.23Z"/><path
			class="bda297ed-b0a0-4f24-9b3b-42dcf1e0ea47"
			d="M103.28,48.72l1.54-7.39a8.3,8.3,0,0,1-8.53-6.67C94.55,27.47,101,19.87,101,19.87l5.65,6.5s-2.53,4.29-1.61,6,2.8-2.11,2.8-2.11,4.15-.11,2.64,4.48A3.24,3.24,0,0,1,107,37.26s-.11,3.6,2.43,5.61a2.64,2.64,0,0,0,2.51-.36l-.72,7Z"/><path class="e845bfd5-d163-4f77-99b7-78688b666240" d="M100,22.76S92,16,93.47,13.66s9.81,5,9.81,5Z"/><path class="e845bfd5-d163-4f77-99b7-78688b666240" d="M98.18,17.61s6.64-7.73,16.91-2.12,5.44,18.76,5.44,18.76S100.37,31.92,98.18,17.61Z"/><path class="f1632db5-c767-4a08-bb03-b30a752672ed" d="M106.64,29.43a25.86,25.86,0,0,0-3.1,11.85"/><path class="a2b5ceaa-a117-4dd6-b836-60e268fecf51" d="M102.42,33.5a2.62,2.62,0,1,0-2.62,2.62A2.62,2.62,0,0,0,102.42,33.5Z"/><polygon class="a62cfe61-021a-4d07-aaf9-7e5f2ceaf76d" points="75.7 77.42 58.05 68.48 53.48 40.82 71.14 49.75 75.7 77.42"/><polygon class="a08fcc1c-37c0-4a22-abff-c2fd981a25ea" points="85 40.82 71.14 49.75 75.7 77.42 90.43 69.98 85 40.82"/><polygon class="a62cfe61-021a-4d07-aaf9-7e5f2ceaf76d" points="104.33 47.59 85 40.82 90.43 69.98 107.58 74.65 104.33 47.59"/><path class="f2d9d64c-5b28-47a7-9324-8c40e9a6c799" d="M88.8,107s29.59,2,43.82,0c0,0,.95-61.18-24.24-61.18C83.74,45.83,88.8,107,88.8,107Z"/><path
			class="bda297ed-b0a0-4f24-9b3b-42dcf1e0ea47"
			d="M85.85,70.86c-2.94,5.54-5.16,10-5.16,10a62.35,62.35,0,0,1-17.1-8.68s1.83-5,.67-5.28c-.81-.19-1.85,2.1-2.41,3.51l-3.8-1.93-1-5.56C54.43,65.72,56.9,73.66,59,77.3c0,0,7.44,16.64,21.93,18.55,7.91,1,14.67-7.44,18.87-16.42"/><path class="fd69f042-fba9-4854-bf75-0d5bca56977d" d="M104.1,61.15a22.18,22.18,0,0,0-6.36-10.06c-2.92,3.32-8,12.48-11.89,19.77a64.5,64.5,0,0,0,13.9,8.56C103.26,71.93,105,64.09,104.1,61.15Z"/><path class="f1632db5-c767-4a08-bb03-b30a752672ed" d="M97.74,51.09c-2.92,3.32-8,12.48-11.89,19.77a64.5,64.5,0,0,0,13.9,8.56,58.25,58.25,0,0,0,3-7.81"/><path class="b97b77c2-c5ef-4605-b7a1-aeb6026b881f" d="M109.24,49.09C101,47.88,99.76,49,99.76,49l-1.19,1.13a4.6,4.6,0,0,1,.7-3.38c1.11-1.43,4.89-2.12,10.14-2.87s3.46,5.39,3.46,5.39Z"/><path
			class="e845bfd5-d163-4f77-99b7-78688b666240"
			d="M108.89,91.08A4.89,4.89,0,0,0,113,95.36c6.35,1,19.38,2.69,25.83.49,8.73-3,8.83-19.42,3.19-26a87.71,87.71,0,0,0,.64-16.24,6.78,6.78,0,0,0-3.37-5.41A44.39,44.39,0,0,0,126.35,43a7.8,7.8,0,0,0-2.64-.09l-10.25,1.47a4.9,4.9,0,0,0-4.16,4.21A185.31,185.31,0,0,0,108.89,91.08Z"/><path class="f78c8c7b-f630-47b4-a8fe-2ab1a4c247e5" d="M118.37,69.86a18,18,0,0,0-2.46.46s.56,18.75,1.23,23.73c0,0,.09,1,5.83,2.56,5.74.49,12,.56,15.83-.76,8.73-3,8.83-19.42,3.19-26L129.8,66.07Z"/><path class="b97b77c2-c5ef-4605-b7a1-aeb6026b881f" d="M139.26,48.21A44.39,44.39,0,0,0,126.35,43a7.8,7.8,0,0,0-2.64-.09l-6,.87.69,26.05s15.3-1.13,23.62,0a87.71,87.71,0,0,0,.64-16.24A6.78,6.78,0,0,0,139.26,48.21Z"/><path class="b58c7075-9918-47dd-908d-0365388db0e7" d="M.5,199S120,162.45,198.05,189v24.51H.5Z"/></g>
	</g>
</svg>
