<svg xmlns="http://www.w3.org/2000/svg" viewBox="0 0 198.57 189.49"><defs><style>.f070979f-5378-4126-95ad-f7ec7cf4a6b1{fill:#fff;}.a3ad374b-2263-40da-9847-74150c61b0f0,.e86fbbcc-e913-4cf8-9aee-293c8a4fa389,.f070979f-5378-4126-95ad-f7ec7cf4a6b1{stroke:#211c1d;}.a07199a7-37bb-46f9-90bd-54d378d2ce4b,.a381619b-88f6-419d-8856-09aeff969158,.a3ad374b-2263-40da-9847-74150c61b0f0,.a43d8b39-3239-454c-a797-e7c9ac91a4f5,.af681b15-d6f5-4569-a834-c8e5fc99d143,.b2306cc6-7a5a-4165-8b79-ac45ec14e9c6,.b43e8df6-3575-4efc-828c-0470b47884d0,.b9c2311e-2e41-4d01-9b58-d843beabfadc,.ba9c451e-a34b-477c-8dcd-1a50f93f6975,.e86fbbcc-e913-4cf8-9aee-293c8a4fa389,.ed7e78cf-93cf-4840-9925-467628950182,.f070979f-5378-4126-95ad-f7ec7cf4a6b1,.f77ae857-d2cc-4d2a-b515-0bee4b8bcfb8,.fa680ec6-d7cd-4ba9-84eb-076cae2c5f56{stroke-linecap:round;stroke-linejoin:round;}.e86fbbcc-e913-4cf8-9aee-293c8a4fa389,.f070979f-5378-4126-95ad-f7ec7cf4a6b1{stroke-width:1.02px;}.a3ad374b-2263-40da-9847-74150c61b0f0{fill:#038c3e;stroke-width:0.85px;}.ed7e78cf-93cf-4840-9925-467628950182,.fa680ec6-d7cd-4ba9-84eb-076cae2c5f56{fill:#68c3c5;}.a07199a7-37bb-46f9-90bd-54d378d2ce4b,.a381619b-88f6-419d-8856-09aeff969158,.a43d8b39-3239-454c-a797-e7c9ac91a4f5,.af681b15-d6f5-4569-a834-c8e5fc99d143,.b2306cc6-7a5a-4165-8b79-ac45ec14e9c6,.b43e8df6-3575-4efc-828c-0470b47884d0,.b9c2311e-2e41-4d01-9b58-d843beabfadc,.ba9c451e-a34b-477c-8dcd-1a50f93f6975,.ed7e78cf-93cf-4840-9925-467628950182,.f77ae857-d2cc-4d2a-b515-0bee4b8bcfb8,.fa680ec6-d7cd-4ba9-84eb-076cae2c5f56{stroke:#1b2d42;}.a381619b-88f6-419d-8856-09aeff969158,.fa680ec6-d7cd-4ba9-84eb-076cae2c5f56{stroke-width:0.64px;}.a381619b-88f6-419d-8856-09aeff969158,.b9c2311e-2e41-4d01-9b58-d843beabfadc{fill:none;}.a07199a7-37bb-46f9-90bd-54d378d2ce4b{fill:#1b2d42;}.a07199a7-37bb-46f9-90bd-54d378d2ce4b,.a43d8b39-3239-454c-a797-e7c9ac91a4f5,.af681b15-d6f5-4569-a834-c8e5fc99d143,.b2306cc6-7a5a-4165-8b79-ac45ec14e9c6,.b43e8df6-3575-4efc-828c-0470b47884d0,.b9c2311e-2e41-4d01-9b58-d843beabfadc,.ba9c451e-a34b-477c-8dcd-1a50f93f6975,.ed7e78cf-93cf-4840-9925-467628950182,.f77ae857-d2cc-4d2a-b515-0bee4b8bcfb8{stroke-width:0.79px;}.a43d8b39-3239-454c-a797-e7c9ac91a4f5{fill:#ffc298;}.b43e8df6-3575-4efc-828c-0470b47884d0{fill:#d77574;}.b2306cc6-7a5a-4165-8b79-ac45ec14e9c6{fill:#ffb199;}.af681b15-d6f5-4569-a834-c8e5fc99d143{fill:#b0d893;}.ad129fe3-d4a6-46f8-a6e8-ab6333f3a1a3,.ba9c451e-a34b-477c-8dcd-1a50f93f6975{fill:#f2db9f;}.f77ae857-d2cc-4d2a-b515-0bee4b8bcfb8{fill:#ffa9c0;}.e86fbbcc-e913-4cf8-9aee-293c8a4fa389{fill:#296573;}</style></defs><g id="b8f407e3-410d-474e-8e11-d71d945a7f19" data-name="Layer 2"><g id="b60d5085-2213-4af6-8a97-1900fcf147e2" data-name="OBJECTS"><path class="f070979f-5378-4126-95ad-f7ec7cf4a6b1" d="M.51,74.57s5-5,9.21-1.6.92,10.87.92,10.87,6.57-6.73,12.6.86c0,0,6.16-9.73,15.33,1a9.72,9.72,0,0,1,7.12-6.45C51.3,78.12,56,84.42,56,84.42S50.21,69.81,61.71,64.8s1.09-13.31,4.38-19.33S76.63,42,76.63,42,69.51,10,101.68,14.83c0,0,7.39-13.17,24.64-7.44s14.24,25.2,19.85,27.49,16.29-19.76,31.49-7.73c0,0,7.53-12.46,20.4-3.87V137.35H.51Z"/><path class="a3ad374b-2263-40da-9847-74150c61b0f0" d="M.51,92.66c32-7.86,71.11,6.73,109.42,9.87s88.13-9.48,88.13-9.48V178L.51,182.09Z"/><path class="fa680ec6-d7cd-4ba9-84eb-076cae2c5f56" d="M92.71,163.27s-2.46-55.77-2.26-73.6l21.16-2.83,20.74,3.26s4.1,64.11,4.1,71.89l-7.39.15s-12.18-43.51-17.66-59c0,0-7.39,44.72-9.65,60.15Z"/><path class="a381619b-88f6-419d-8856-09aeff969158" d="M92.51,96.18s-1.44,4.18,4.41,5.88"/><path class="a07199a7-37bb-46f9-90bd-54d378d2ce4b" d="M112,31.06c3.26-1.7,5.69-4.67,8-11.65s-1.78-13-9.41-15.2S98,4.89,99.89,9a19,19,0,0,1,1.65,8.28s4.4,12.56,6.33,14.44,3,1.29,3,1.29Z"/><path class="a43d8b39-3239-454c-a797-e7c9ac91a4f5" d="M103.29,37.55l1.54-7.73s-6.79.54-8.53-7S101,7.38,101,7.38l5.65,6.8s-2.53,4.48-1.61,6.31,2.8-2.21,2.8-2.21,4.15-.12,2.64,4.68c-1,3-3.49,2.6-3.49,2.6s-.11,3.77,2.43,5.87a2.56,2.56,0,0,0,2.52-.37l-.72,7.35Z"/><path class="b43e8df6-3575-4efc-828c-0470b47884d0" d="M100,10.41S92.05,3.35,93.48.88s9.81,5.21,9.81,5.21Z"/><path class="b43e8df6-3575-4efc-828c-0470b47884d0" d="M98.19,5s6.64-8.09,16.91-2.22,5.45,19.61,5.45,19.61S100.38,20,98.19,5Z"/><path class="b9c2311e-2e41-4d01-9b58-d843beabfadc" d="M106.65,17.38a27.91,27.91,0,0,0-3.1,12.39"/><path class="b2306cc6-7a5a-4165-8b79-ac45ec14e9c6" d="M102.43,21.63a2.62,2.62,0,1,0-2.62,2.74A2.68,2.68,0,0,0,102.43,21.63Z"/><polygon class="ed7e78cf-93cf-4840-9925-467628950182" points="75.72 67.56 58.06 58.22 53.49 29.29 71.15 38.63 75.72 67.56"/><polygon class="af681b15-d6f5-4569-a834-c8e5fc99d143" points="85.01 29.29 71.15 38.63 75.72 67.56 90.44 59.78 85.01 29.29"/><polygon class="ed7e78cf-93cf-4840-9925-467628950182" points="104.34 36.37 85.01 29.29 90.44 59.78 107.59 64.67 104.34 36.37"/><path class="ba9c451e-a34b-477c-8dcd-1a50f93f6975" d="M88.81,98.51s29.59,2.15,43.82,0c0,0,1-64-24.24-64C83.75,34.53,88.81,98.51,88.81,98.51Z"/><path class="a43d8b39-3239-454c-a797-e7c9ac91a4f5" d="M85.86,60.71C82.92,66.5,80.7,71.16,80.7,71.16a60.84,60.84,0,0,1-17.09-9.07s1.83-5.24.66-5.53c-.81-.2-1.85,2.2-2.41,3.68l-3.8-2-1-5.82c-2.66,2.93-.19,11.23,1.87,15,0,0,7.44,17.41,21.94,19.4,7.9,1.09,14.66-7.78,18.86-17.17"/><path class="ad129fe3-d4a6-46f8-a6e8-ab6333f3a1a3" d="M104.11,50.55A23.22,23.22,0,0,0,97.75,40c-2.92,3.47-8,13-11.89,20.68a64.27,64.27,0,0,0,13.9,8.95C103.27,61.82,105,53.62,104.11,50.55Z"/><path class="b9c2311e-2e41-4d01-9b58-d843beabfadc" d="M97.75,40c-2.92,3.47-8,13-11.89,20.68a64.27,64.27,0,0,0,13.9,8.95,63.43,63.43,0,0,0,3-8.17"/><path class="a07199a7-37bb-46f9-90bd-54d378d2ce4b" d="M109.26,37.94c-8.23-1.27-9.49-.06-9.49-.06l-1.19,1.17a5,5,0,0,1,.7-3.53c1.11-1.49,4.89-2.22,10.14-3s3.46,5.64,3.46,5.64Z"/><path class="b43e8df6-3575-4efc-828c-0470b47884d0" d="M108.9,81.86A5,5,0,0,0,113,86.33c6.35,1.06,19.38,2.81,25.83.51,8.73-3.11,8.83-20.31,3.19-27.17a96,96,0,0,0,.64-17A7.12,7.12,0,0,0,139.27,37a43.49,43.49,0,0,0-12.91-5.42,7.32,7.32,0,0,0-2.64-.09L113.48,33a5,5,0,0,0-4.16,4.4A202,202,0,0,0,108.9,81.86Z"/><path class="f77ae857-d2cc-4d2a-b515-0bee4b8bcfb8" d="M118.38,59.67a17,17,0,0,0-2.46.47s.56,19.61,1.23,24.82c0,0,.1,1.07,5.84,2.67,5.73.52,12,.59,15.82-.79,8.73-3.11,8.83-20.31,3.19-27.17l-12.19-4Z"/><path class="a07199a7-37bb-46f9-90bd-54d378d2ce4b" d="M139.27,37a43.49,43.49,0,0,0-12.91-5.42,7.32,7.32,0,0,0-2.64-.09l-6,.9.69,27.26s15.3-1.19,23.62,0a96,96,0,0,0,.64-17A7.12,7.12,0,0,0,139.27,37Z"/><path class="e86fbbcc-e913-4cf8-9aee-293c8a4fa389" d="M.51,173.77S120,135.58,198.06,163.35V189H.51Z"/></g></g></svg>