<svg xmlns="http://www.w3.org/2000/svg" viewBox="0 0 198.55 181.21">
	<defs>
		<style>
			.a5ddb3a1-cb4e-4658-a6d8-bc4e4a81ac22 {
				fill: #fff;
			}
			.a5ddb3a1-cb4e-4658-a6d8-bc4e4a81ac22,
			.a8ac44be-3c5f-4f17-9025-9e482a84779f,
			.f4531e2e-3355-4434-b7d3-6f8ed1dd90d4 {
				stroke: #211c1d;
			}
			.a5ddb3a1-cb4e-4658-a6d8-bc4e4a81ac22,
			.a8ac44be-3c5f-4f17-9025-9e482a84779f,
			.b1a30052-4937-4ce3-a78b-452309837e24,
			.b37f9c55-40b1-4aa4-bb7d-0856afb9a6fb,
			.b91bbccc-4998-4b9a-80d7-9f5568ee7177,
			.ba064e89-9918-40a4-b3c1-1c846f9f70f8,
			.bca35350-ed13-4fea-b44b-0f33d85e14eb,
			.eaade6c3-8354-45fc-944b-e32fe741c531,
			.ebc8b5b8-7ebc-4377-ae87-cc85788f04e3,
			.ee81235e-3eb5-46d5-aefb-7c071914dbc2,
			.f15655a4-afa0-4840-bb66-8692c97ba6c0,
			.f4531e2e-3355-4434-b7d3-6f8ed1dd90d4,
			.f65bce5a-33e4-48c4-90f8-7800ff513b72,
			.f72fe83f-2089-4f8b-8896-99bdc0c811ef {
				stroke-linecap: round;
				stroke-linejoin: round;
			}
			.a8ac44be-3c5f-4f17-9025-9e482a84779f {
				fill: #038c3e;
				stroke-width: 0.83px;
			}
			.b37f9c55-40b1-4aa4-bb7d-0856afb9a6fb,
			.f65bce5a-33e4-48c4-90f8-7800ff513b72 {
				fill: #68c3c5;
			}
			.b1a30052-4937-4ce3-a78b-452309837e24,
			.b37f9c55-40b1-4aa4-bb7d-0856afb9a6fb,
			.b91bbccc-4998-4b9a-80d7-9f5568ee7177,
			.ba064e89-9918-40a4-b3c1-1c846f9f70f8,
			.bca35350-ed13-4fea-b44b-0f33d85e14eb,
			.eaade6c3-8354-45fc-944b-e32fe741c531,
			.ebc8b5b8-7ebc-4377-ae87-cc85788f04e3,
			.ee81235e-3eb5-46d5-aefb-7c071914dbc2,
			.f15655a4-afa0-4840-bb66-8692c97ba6c0,
			.f65bce5a-33e4-48c4-90f8-7800ff513b72,
			.f72fe83f-2089-4f8b-8896-99bdc0c811ef {
				stroke: #1b2d42;
			}
			.bca35350-ed13-4fea-b44b-0f33d85e14eb,
			.f65bce5a-33e4-48c4-90f8-7800ff513b72 {
				stroke-width: 0.63px;
			}
			.bca35350-ed13-4fea-b44b-0f33d85e14eb,
			.ee81235e-3eb5-46d5-aefb-7c071914dbc2 {
				fill: none;
			}
			.b91bbccc-4998-4b9a-80d7-9f5568ee7177 {
				fill: #1b2d42;
			}
			.b1a30052-4937-4ce3-a78b-452309837e24,
			.b37f9c55-40b1-4aa4-bb7d-0856afb9a6fb,
			.b91bbccc-4998-4b9a-80d7-9f5568ee7177,
			.ba064e89-9918-40a4-b3c1-1c846f9f70f8,
			.eaade6c3-8354-45fc-944b-e32fe741c531,
			.ebc8b5b8-7ebc-4377-ae87-cc85788f04e3,
			.ee81235e-3eb5-46d5-aefb-7c071914dbc2,
			.f15655a4-afa0-4840-bb66-8692c97ba6c0,
			.f72fe83f-2089-4f8b-8896-99bdc0c811ef {
				stroke-width: 0.77px;
			}
			.eaade6c3-8354-45fc-944b-e32fe741c531 {
				fill: #ffc298;
			}
			.b1a30052-4937-4ce3-a78b-452309837e24 {
				fill: #d77574;
			}
			.ba064e89-9918-40a4-b3c1-1c846f9f70f8 {
				fill: #ffb199;
			}
			.f72fe83f-2089-4f8b-8896-99bdc0c811ef {
				fill: #b0d893;
			}
			.bf6d775f-d8c2-46f9-839f-e043587014ec,
			.ebc8b5b8-7ebc-4377-ae87-cc85788f04e3 {
				fill: #f2db9f;
			}
			.f15655a4-afa0-4840-bb66-8692c97ba6c0 {
				fill: #ffa9c0;
			}
			.f4531e2e-3355-4434-b7d3-6f8ed1dd90d4 {
				fill: #296573;
			}
		</style>
	</defs>
	<g id="adff24ed-11ba-42cf-b06f-0a72bed27e53">
		<g id="a81c8fa8-b35d-40b2-b3d1-1cb872269d03"><path
			class="a5ddb3a1-cb4e-4658-a6d8-bc4e4a81ac22"
			d="M.5,71.31s5-4.8,9.21-1.52.92,10.39.92,10.39,6.57-6.44,12.6.82c0,0,6.16-9.31,15.33,1a9.46,9.46,0,0,1,7.12-6.16c5.61-1.1,10.26,4.93,10.26,4.93s-5.75-14,5.75-18.76,1.1-12.73,4.39-18.48S76.62,40.2,76.62,40.2s-7.12-30.66,25-26c0,0,7.39-12.59,24.64-7.12s14.24,24.1,19.85,26.29S162.45,14.47,177.65,26c0,0,7.53-11.91,20.4-3.7V131.35H.5Z"/><path class="a8ac44be-3c5f-4f17-9025-9e482a84779f" d="M.5,88.61c32-7.52,71.11,6.43,109.42,9.44S198.05,89,198.05,89v81.19L.5,174.12Z"/><path class="f65bce5a-33e4-48c4-90f8-7800ff513b72" d="M92.7,156.12s-2.46-53.32-2.26-70.37l21.15-2.7,20.74,3.11s4.11,61.3,4.11,68.74l-7.39.14s-12.18-41.6-17.66-56.43c0,0-7.39,42.76-9.65,57.51Z"/><path class="bca35350-ed13-4fea-b44b-0f33d85e14eb" d="M92.5,92s-1.44,4,4.41,5.61"/><path class="b91bbccc-4998-4b9a-80d7-9f5568ee7177" d="M112,29.71c3.27-1.63,5.7-4.47,8-11.14S118.13,6.14,110.5,4,98,4.69,99.87,8.6a17.41,17.41,0,0,1,1.66,7.91s4.4,12,6.33,13.81,3,1.23,3,1.23Z"/><path
			class="eaade6c3-8354-45fc-944b-e32fe741c531"
			d="M103.28,35.92l1.54-7.4a8.29,8.29,0,0,1-8.53-6.67C94.55,14.66,101,7.07,101,7.07l5.65,6.5s-2.53,4.28-1.61,6,2.8-2.11,2.8-2.11S112,17.37,110.5,22A3.24,3.24,0,0,1,107,24.45s-.11,3.61,2.43,5.61a2.63,2.63,0,0,0,2.51-.35l-.72,7Z"/><path class="b1a30052-4937-4ce3-a78b-452309837e24" d="M100,10S92,3.22,93.47.85s9.81,5,9.81,5Z"/><path class="b1a30052-4937-4ce3-a78b-452309837e24" d="M98.18,4.81s6.64-7.74,16.91-2.13,5.44,18.76,5.44,18.76S100.37,19.11,98.18,4.81Z"/><path class="ee81235e-3eb5-46d5-aefb-7c071914dbc2" d="M106.64,16.62a25.86,25.86,0,0,0-3.1,11.85"/>
			<path class="ba064e89-9918-40a4-b3c1-1c846f9f70f8" d="M102.42,20.69a2.62,2.62,0,1,0-2.62,2.62A2.62,2.62,0,0,0,102.42,20.69Z"/><polygon class="b37f9c55-40b1-4aa4-bb7d-0856afb9a6fb" points="75.7 64.61 58.05 55.68 53.48 28.01 71.14 36.94 75.7 64.61"/><polygon class="f72fe83f-2089-4f8b-8896-99bdc0c811ef" points="85 28.01 71.14 36.94 75.7 64.61 90.43 57.17 85 28.01"/><polygon class="b37f9c55-40b1-4aa4-bb7d-0856afb9a6fb" points="104.33 34.79 85 28.01 90.43 57.17 107.58 61.84 104.33 34.79"/><path class="ebc8b5b8-7ebc-4377-ae87-cc85788f04e3" d="M88.8,94.2s29.59,2.06,43.82,0c0,0,.95-61.17-24.24-61.17C83.74,33,88.8,94.2,88.8,94.2Z"/>
			<path
			class="eaade6c3-8354-45fc-944b-e32fe741c531"
			d="M85.85,58.06c-2.94,5.54-5.16,10-5.16,10a62.16,62.16,0,0,1-17.1-8.67s1.83-5,.67-5.29c-.81-.19-1.85,2.1-2.41,3.51l-3.8-1.92-1-5.57C54.43,52.91,56.9,60.85,59,64.5c0,0,7.44,16.64,21.93,18.55,7.91,1,14.67-7.45,18.87-16.43"/><path class="bf6d775f-d8c2-46f9-839f-e043587014ec" d="M104.1,48.34a22.18,22.18,0,0,0-6.36-10.06c-2.92,3.33-8,12.49-11.89,19.78a64.9,64.9,0,0,0,13.9,8.56C103.26,59.12,105,51.28,104.1,48.34Z"/><path class="ee81235e-3eb5-46d5-aefb-7c071914dbc2" d="M97.74,38.28c-2.92,3.33-8,12.49-11.89,19.78a64.9,64.9,0,0,0,13.9,8.56,59.31,59.31,0,0,0,3-7.81"/><path class="b91bbccc-4998-4b9a-80d7-9f5568ee7177" d="M109.24,36.29c-8.22-1.22-9.48-.06-9.48-.06l-1.19,1.12a4.61,4.61,0,0,1,.7-3.38c1.11-1.42,4.89-2.12,10.14-2.86s3.46,5.39,3.46,5.39Z"/><path
			class="b1a30052-4937-4ce3-a78b-452309837e24"
			d="M108.89,78.28A4.88,4.88,0,0,0,113,82.55c6.35,1,19.38,2.7,25.83.5,8.73-3,8.83-19.43,3.19-26a87.78,87.78,0,0,0,.64-16.24,6.79,6.79,0,0,0-3.37-5.42,44.67,44.67,0,0,0-12.91-5.18,7.56,7.56,0,0,0-2.64-.08L113.46,31.6a4.9,4.9,0,0,0-4.16,4.21A185.4,185.4,0,0,0,108.89,78.28Z"/><path class="f15655a4-afa0-4840-bb66-8692c97ba6c0" d="M118.37,57.06a19.18,19.18,0,0,0-2.46.45s.56,18.76,1.23,23.74c0,0,.09,1,5.83,2.55,5.74.49,12,.56,15.83-.75,8.73-3,8.83-19.43,3.19-26L129.8,53.27Z"/><path class="b91bbccc-4998-4b9a-80d7-9f5568ee7177" d="M139.26,35.4a44.67,44.67,0,0,0-12.91-5.18,7.56,7.56,0,0,0-2.64-.08l-6,.86.69,26.06s15.3-1.14,23.62,0a87.78,87.78,0,0,0,.64-16.24A6.79,6.79,0,0,0,139.26,35.4Z"/><path class="f4531e2e-3355-4434-b7d3-6f8ed1dd90d4" d="M.5,166.16S120,129.65,198.05,156.21v24.5H.5Z"/></g>
	</g>
</svg>
